<?xml version="1.0" encoding="utf-8"?>
<!-- Generator: Adobe Illustrator 24.0.1, SVG Export Plug-In . SVG Version: 6.00 Build 0)  -->
<svg version="1.1" id="Слой_1" xmlns="http://www.w3.org/2000/svg" xmlns:xlink="http://www.w3.org/1999/xlink" x="0px" y="0px"
	 viewBox="0 0 90 90" style="enable-background:new 0 0 90 90;" xml:space="preserve">
<style type="text/css">
	.st0{fill-rule:evenodd;clip-rule:evenodd;fill:#65BB99;}
	.st1{fill-rule:evenodd;clip-rule:evenodd;fill:#FFFFFF;}
</style>
<title>logo_1</title>
<desc>Created with Sketch.</desc>
<rect id="Rectangle-2" class="st0" width="90" height="90"/>
<g>
	<path class="st1" d="M55.1,27.6v-9.4H41.2c0,0.1-20.5-0.4-21.6,18.8c-0.5,8.8,5.7,17.1,14.1,19.7c2.6,0.8,8.9,1,14.3,1h7.3V47.3
		H42.2c-6.9,0-12.6-3.7-12.3-9.7c0.4-7.2,5.6-9.5,11.6-10.1H54L55.1,27.6"/>
	<path class="st1" d="M34.9,62.4v9.4h13.9c0-0.1,20.5,0.4,21.6-18.8c0.5-8.8-5.7-17.1-14.1-19.7c-2.6-0.8-8.9-1-14.3-1h-7.3v10.3
		h13.2c6.9,0,12.6,3.7,12.3,9.7c-0.4,7.2-5.6,9.5-11.6,10.1H36L34.9,62.4"/>
</g>
</svg>
