<svg width="592" height="140" viewBox="0 0 592 140" fill="none" xmlns="http://www.w3.org/2000/svg">
<path d="M68.3489 63.7134C65.2161 63.7134 62.2949 64.2638 59.5854 65.3644C56.8759 66.3805 54.5474 67.9045 52.6 69.9365V95.9718C54.4628 97.8345 56.7489 99.3162 59.4584 100.417C62.2526 101.518 65.2161 102.068 68.3489 102.068C73.7679 102.068 78.3401 100.247 82.0657 96.6068C85.7912 92.8814 87.654 88.3094 87.654 82.8906C87.654 77.4719 85.7489 72.9422 81.9387 69.3015C78.2131 65.5761 73.6832 63.7134 68.3489 63.7134Z" fill="#0C5DE2"/>
<path fill-rule="evenodd" clip-rule="evenodd" d="M35.2 0L35.2 13L52.6 9.2V0H120C131.046 0 140 8.95431 140 20V120C140 131.046 131.046 140 120 140H20C8.9543 140 0 131.046 0 120V20C0 8.9543 8.95431 0 20 0H35.2ZM104.8 82.8906C104.8 87.632 103.911 92.0771 102.133 96.2258C100.355 100.374 97.9416 103.973 94.8934 107.021C91.8453 110.069 88.2044 112.482 83.9708 114.26C79.8219 115.953 75.3766 116.8 70.635 116.8C67.3328 116.8 64.1153 116.334 60.9825 115.403C57.8496 114.472 54.9708 113.159 52.346 111.466V115.911H35.2V27.01L52.6 23.2V54.9503C55.2248 53.003 58.1036 51.5213 61.2365 50.5053C64.454 49.4046 67.7562 48.8543 71.1431 48.8543C75.8 48.8543 80.1606 49.7433 84.2248 51.5213C88.3737 53.2993 91.9723 55.7123 95.0204 58.7604C98.0686 61.8084 100.439 65.4068 102.133 69.5555C103.911 73.7042 104.8 78.1493 104.8 82.8906Z" fill="#0C5DE2"/>
<path d="M489 111V53.9L504.129 51V56.7627C506.337 54.8795 508.767 53.4482 511.417 52.4689C514.141 51.4896 517.086 51 520.252 51C526.877 51 532.325 53.1846 536.595 57.5537C540.865 61.9228 543 67.5348 543 74.3898V111H527.871V76.6497C527.871 72.9586 526.767 69.9831 524.558 67.7232C522.423 65.4633 519.552 64.3333 515.945 64.3333C513.442 64.3333 511.16 64.8606 509.098 65.9152C507.11 66.8945 505.454 68.3258 504.129 70.209V111H489Z" fill="#1D1B28"/>
<path d="M481 55.3999V111H466V58.3L481 55.3999Z" fill="#1D1B28"/>
<path d="M403 111V31L418.409 28V56.8246C420.658 54.9296 423.133 53.4894 425.832 52.504C428.607 51.5186 431.606 51.0259 434.83 51.0259C441.579 51.0259 447.127 53.2241 451.476 57.6204C455.825 62.0168 458 67.6638 458 74.5615V111H442.591V76.8355C442.591 73.1214 441.466 70.1273 439.217 67.8533C437.042 65.5794 434.118 64.4424 430.444 64.4424C427.894 64.4424 425.57 64.973 423.47 66.0341C421.446 67.0195 419.759 68.4597 418.409 70.3547V111H403Z" fill="#1D1B28"/>
<path d="M481 28V41.5L466 44.5V31L481 28Z" fill="#0C5DE2"/>
<path d="M271 81.5685C271 85.8236 270.221 89.8127 268.662 93.5359C267.104 97.2592 264.989 100.488 262.318 103.224C259.646 105.959 256.455 108.125 252.745 109.72C249.108 111.24 245.212 112 241.057 112C238.162 112 235.342 111.582 232.597 110.746C229.851 109.91 227.328 108.733 225.027 107.213V111H210V31L225.25 28V56.4939C227.55 54.7463 230.074 53.4165 232.819 52.5047C235.639 51.517 238.533 51.0231 241.502 51.0231C245.583 51.0231 249.405 51.8209 252.967 53.4166C256.603 55.0122 259.757 57.1777 262.429 59.9132C265.1 62.6486 267.178 65.8779 268.662 69.6011C270.221 73.3243 271 77.3134 271 81.5685ZM239.053 64.3582C236.307 64.3582 233.747 64.8521 231.372 65.8399C228.998 66.7517 226.957 68.1194 225.25 69.943V93.308C226.883 94.9796 228.886 96.3094 231.261 97.2972C233.71 98.2849 236.307 98.7788 239.053 98.7788C243.802 98.7788 247.81 97.1452 251.075 93.8779C254.34 90.5346 255.973 86.4315 255.973 81.5685C255.973 76.7056 254.303 72.6404 250.964 69.3731C247.698 66.0299 243.728 64.3582 239.053 64.3582Z" fill="#1D1B28"/>
<path d="M397 81.5685C397 85.8236 396.221 89.8127 394.662 93.5359C393.104 97.2592 390.989 100.488 388.318 103.224C385.646 105.959 382.455 108.125 378.745 109.72C375.108 111.24 371.212 112 367.057 112C364.162 112 361.342 111.582 358.597 110.746C355.851 109.91 353.328 108.733 351.027 107.213V111H336V31L351.25 28V56.4939C353.55 54.7463 356.074 53.4165 358.819 52.5047C361.639 51.517 364.533 51.0231 367.502 51.0231C371.583 51.0231 375.405 51.8209 378.967 53.4166C382.603 55.0122 385.757 57.1777 388.429 59.9132C391.1 62.6486 393.178 65.8779 394.662 69.6011C396.221 73.3243 397 77.3134 397 81.5685ZM365.053 64.3582C362.307 64.3582 359.747 64.8521 357.372 65.8399C354.998 66.7517 352.957 68.1194 351.25 69.943V93.308C352.883 94.9796 354.886 96.3094 357.261 97.2972C359.71 98.2849 362.307 98.7788 365.053 98.7788C369.802 98.7788 373.81 97.1452 377.075 93.8779C380.34 90.5346 381.973 86.4315 381.973 81.5685C381.973 76.7056 380.303 72.6404 376.964 69.3731C373.698 66.0299 369.728 64.3582 365.053 64.3582Z" fill="#1D1B28"/>
<path d="M560.828 94.5542V64.0001H549V51.0001H560.828V40.0001L575.972 37.1001V51.0001H588.647V64.0001H575.972V91.4027C575.972 94.179 576.561 96.13 577.74 97.2555C578.919 98.3811 580.983 98.9438 583.931 98.9438C585.331 98.9438 586.657 98.8688 587.91 98.7187C589.163 98.4936 590.526 98.1184 592 97.5932V110.199C590.379 110.724 588.426 111.137 586.141 111.437C583.857 111.813 581.904 112 580.283 112C573.871 112 569.008 110.537 565.692 107.61C562.449 104.609 560.828 100.257 560.828 94.5542Z" fill="#1D1B28"/>
<path d="M273.118 100.168V111H330V98.024H294.632L313.893 80.8731C319.45 75.9083 323.354 71.5078 325.607 67.6714C327.86 63.835 328.986 59.6601 328.986 55.1467C328.986 51.6112 328.273 48.339 326.846 45.33C325.494 42.3211 323.542 39.7635 320.989 37.6573C318.511 35.551 315.47 33.9337 311.865 32.8054C308.336 31.6018 304.469 31 300.263 31C294.857 31 289.6 32.0531 284.494 34.1594C279.771 36.1075 275.273 38.9243 271 42.6099L279.636 53.0187C283.083 50.0178 286.279 47.8311 289.225 46.4584C292.529 44.9539 296.058 44.2017 299.813 44.2017C303.868 44.2017 307.247 45.33 309.95 47.5867C312.654 49.8434 314.005 52.7019 314.005 56.1622C314.005 58.795 313.254 61.3526 311.753 63.835C310.251 66.2421 307.735 69.063 304.206 72.2976L273.118 100.168Z" fill="#1D1B28"/>
</svg>
